<svg xmlns="http://www.w3.org/2000/svg" xmlns:xlink="http://www.w3.org/1999/xlink" width="500" zoomAndPan="magnify" viewBox="0 0 375 374.999991" height="500" preserveAspectRatio="xMidYMid meet" version="1.0"><defs><g/></defs><rect x="-37.5" width="450" fill="#ffffff" y="-37.499999" height="449.999989" fill-opacity="1"/><rect x="-37.5" width="450" fill="#ffffff" y="-37.499999" height="449.999989" fill-opacity="1"/><rect x="-37.5" width="450" fill="#000000" y="-37.499999" height="449.999989" fill-opacity="1"/><g fill="#ffffff" fill-opacity="1"><g transform="translate(112.02437, 305.99998)"><g><path d="M 162.40625 -202.09375 C 161.082031 -185.914062 160.421875 -171.453125 160.421875 -158.703125 C 160.421875 -149.753906 160.703125 -142.523438 161.265625 -137.015625 L 154.703125 -137.015625 C 150.898438 -158.515625 145.191406 -173.640625 137.578125 -182.390625 C 129.960938 -191.148438 119.304688 -195.53125 105.609375 -195.53125 L 96.1875 -195.53125 C 90.289062 -195.53125 86.007812 -195.050781 83.34375 -194.09375 C 80.6875 -193.144531 78.878906 -191.289062 77.921875 -188.53125 C 76.972656 -185.769531 76.5 -181.347656 76.5 -175.265625 L 76.5 -103.328125 L 86.484375 -103.328125 C 96.566406 -103.328125 104.222656 -107.035156 109.453125 -114.453125 C 114.691406 -121.878906 118.359375 -130.726562 120.453125 -141 L 127.015625 -141 C 126.441406 -133.007812 126.15625 -124.066406 126.15625 -114.171875 L 126.15625 -100.46875 C 126.15625 -90.769531 126.726562 -77.257812 127.875 -59.9375 L 121.3125 -59.9375 C 117.3125 -85.0625 105.703125 -97.625 86.484375 -97.625 L 76.5 -97.625 L 76.5 -31.96875 C 76.5 -24.351562 77.304688 -18.785156 78.921875 -15.265625 C 80.535156 -11.742188 83.390625 -9.410156 87.484375 -8.265625 C 91.578125 -7.128906 98.097656 -6.46875 107.046875 -6.28125 L 107.046875 0 C 83.640625 -0.570312 66.222656 -0.859375 54.796875 -0.859375 C 45.285156 -0.859375 33.300781 -0.664062 18.84375 -0.28125 L 9.703125 0 L 9.703125 -5.703125 C 15.984375 -6.085938 20.597656 -6.847656 23.546875 -7.984375 C 26.492188 -9.128906 28.488281 -11.316406 29.53125 -14.546875 C 30.582031 -17.785156 31.109375 -23.019531 31.109375 -30.25 L 31.109375 -171.828125 C 31.109375 -179.066406 30.582031 -184.300781 29.53125 -187.53125 C 28.488281 -190.769531 26.492188 -192.957031 23.546875 -194.09375 C 20.597656 -195.238281 15.984375 -196 9.703125 -196.375 L 9.703125 -202.09375 C 30.253906 -201.519531 61.269531 -201.234375 102.75 -201.234375 C 130.726562 -201.234375 150.613281 -201.519531 162.40625 -202.09375 Z M 162.40625 -202.09375 "/></g></g></g></svg>