<?xml version="1.0" encoding="UTF-8" standalone="no"?>
<svg
   xmlns:dc="http://purl.org/dc/elements/1.1/"
   xmlns:cc="http://creativecommons.org/ns#"
   xmlns:rdf="http://www.w3.org/1999/02/22-rdf-syntax-ns#"
   xmlns:svg="http://www.w3.org/2000/svg"
   xmlns="http://www.w3.org/2000/svg"
   xmlns:sodipodi="http://sodipodi.sourceforge.net/DTD/sodipodi-0.dtd"
   xmlns:inkscape="http://www.inkscape.org/namespaces/inkscape"
   height="27.568995"
   width="108.28319"
   aria-hidden="true"
   version="1.1"
   id="svg18"
   sodipodi:docname="youth-dsfaisal--sm3.svg"
   inkscape:version="1.0.1 (3bc2e813f5, 2020-09-07)">
  <sodipodi:namedview
     pagecolor="#ffffff"
     bordercolor="#666666"
     borderopacity="1"
     objecttolerance="10"
     gridtolerance="10"
     guidetolerance="10"
     inkscape:pageopacity="0"
     inkscape:pageshadow="2"
     inkscape:window-width="1500"
     inkscape:window-height="938"
     id="namedview100"
     showgrid="false"
     inkscape:zoom="6.6152039"
     inkscape:cx="54.082697"
     inkscape:cy="17.20655"
     inkscape:window-x="-6"
     inkscape:window-y="-6"
     inkscape:window-maximized="1"
     inkscape:current-layer="svg18"
     inkscape:document-rotation="0" />
  <metadata
     id="metadata24">
    <rdf:RDF>
      <cc:Work
         rdf:about="">
        <dc:format>image/svg+xml</dc:format>
        <dc:type
           rdf:resource="http://purl.org/dc/dcmitype/StillImage" />
        <dc:title></dc:title>
      </cc:Work>
    </rdf:RDF>
  </metadata>
  <defs
     id="defs22" />
  <g
     aria-label="dsFaisal"
     transform="matrix(0.85518395,0,0,0.79348831,-0.36853041,-0.16413269)"
     id="text28"
     style="font-size:56.5864px;line-height:1.25;font-family:'Youth Touch DEMO';-inkscape-font-specification:'Youth Touch DEMO';stroke-width:1.41467">
    <path
       d="m 24.572958,0.32002234 q 0.79221,0 1.018555,0.84879596 0.282932,0.848796 0.339519,1.5278328 0.113173,1.9239376 -0.679037,4.4137391 -0.792209,2.4332152 -2.093697,5.1493628 -1.301487,2.65956 -2.82932,5.48888 -1.527832,2.772734 -2.82932,5.432295 -1.301487,2.602974 -2.150283,4.923016 -0.792209,2.320043 -0.679037,4.074221 0.05659,0.452691 0.16976,1.018555 0.113172,0.565864 0.735623,0.565864 0.396105,0 0.905382,-0.339518 0.565864,-0.339519 1.075142,-0.735623 0.565864,-0.452692 0.961969,-0.79221 0.452691,-0.396105 0.679036,-0.396105 0.282932,0 0.282932,0.339519 0.05659,0.452691 -0.396104,0.961968 -0.396105,0.509278 -1.018556,0.961969 -0.62245,0.452691 -1.301487,0.79221 -0.679037,0.282932 -1.131728,0.282932 -1.527833,0 -2.546388,-1.018555 -1.018555,-1.018556 -1.131728,-2.489802 -0.113172,-0.848796 0.113173,-1.641006 0.226346,-0.848796 0.169759,-1.584419 l -0.05659,-0.05659 q -0.226346,0 -1.244901,1.075141 -0.9619687,1.075142 -2.2068694,2.376629 -1.1883144,1.244901 -2.3766288,2.320043 -1.1883144,1.075141 -1.8673512,1.075141 -0.6790368,0 -1.4146599,-0.226345 Q 2.3910899,34.385035 1.8252259,33.932343 1.2593619,33.423066 0.86325709,32.800615 0.4671523,32.178165 0.4671523,31.442542 0.2408067,28.669808 1.4291211,25.897075 q 1.1883144,-2.82932 3.2254247,-5.03619 2.0936968,-2.263456 4.6966712,-3.621529 2.659561,-1.41466 5.375708,-1.41466 0.509277,0 0.961969,0.05659 0.509277,0.05659 1.018555,0.113173 0.282932,0.05659 0.905382,-0.961969 0.679037,-1.075141 1.41466,-2.659561 0.79221,-1.584419 1.584419,-3.5083564 0.848796,-1.9239376 1.527833,-3.6781159 0.735623,-1.7541784 1.188315,-3.0556656 0.509277,-1.35807357 0.565864,-1.75417837 z M 13.255678,24.70876 q 0.113173,-0.339518 0.509278,-1.41466 0.452691,-1.075141 0.905382,-2.206869 0.509278,-1.188315 0.905383,-2.150283 0.396105,-0.961969 0.396105,-1.018556 V 17.80522 q -2.037111,0.282932 -4.300567,1.867351 -2.2068692,1.584419 -4.017634,3.791289 -1.8107648,2.206869 -2.9424928,4.753257 -1.131728,2.546388 -0.9619688,4.640085 v 0.169759 q 0,0.169759 0.056586,0.226346 h 0.056586 q 0.1697592,0 0.848796,-0.565864 0.7356232,-0.565864 1.6410056,-1.41466 0.9619688,-0.848796 2.0371104,-1.867352 1.0751416,-1.075141 2.0371106,-1.980524 1.018555,-0.961968 1.754178,-1.697591 0.792209,-0.735624 1.075142,-1.018556 z m 1.018556,-1.018555 q 0.169759,-0.282932 0.905382,-1.754178 0.79221,-1.527833 1.754178,-3.564943 1.018556,-2.093697 2.093697,-4.470326 1.131728,-2.376629 2.093697,-4.4703254 0.961969,-2.0936968 1.584419,-3.6215296 0.679037,-1.5278327 0.79221,-1.8673511 0.05659,-0.282932 0.226345,-0.565864 0.16976,-0.3395184 0.16976,-0.6224504 -1.018556,2.7161472 -2.263456,5.3191215 -1.244901,2.546388 -2.546388,5.149362 -1.301488,2.546388 -2.602975,5.149363 -1.244901,2.546388 -2.263456,5.262535 l -0.113173,0.05659 z m 1.41466,-1.301487 q 0.169759,-0.226346 0.848796,-1.527833 0.735623,-1.301487 1.641005,-3.112252 0.905383,-1.810765 1.923938,-3.847875 1.018555,-2.03711 1.867351,-3.791289 0.848796,-1.8107644 1.41466,-2.9990788 0.565864,-1.2449008 0.565864,-1.41466 -0.113173,0.1697592 -0.735623,1.3580736 -0.622451,1.131728 -1.471247,2.82932 -0.848796,1.6410052 -1.810764,3.6781162 -0.961969,1.980524 -1.867352,3.791288 -0.848796,1.754179 -1.527832,3.168839 -0.622451,1.358073 -0.848796,1.867351 z m 3.395184,-3.508357 q 0.169759,-0.226345 0.62245,-1.131728 0.509278,-0.905382 1.131728,-2.093697 0.62245,-1.188314 1.244901,-2.546387 0.679037,-1.41466 1.244901,-2.602975 0.62245,-1.1883142 1.018555,-2.0936966 0.396105,-0.9053824 0.452691,-1.131728 -0.05659,0.056586 -0.509278,0.9053824 -0.396104,0.7922096 -1.018555,2.0371102 -0.62245,1.188315 -1.358073,2.659561 -0.679037,1.471246 -1.301488,2.772733 -0.62245,1.244901 -1.075141,2.150284 -0.396105,0.905382 -0.452691,1.075141 z m -0.79221,1.697592 q -0.113173,0 -0.169759,0.169759 -0.05659,0.113173 0,0.16976 0.113173,0 0.05659,-0.113173 0,-0.113173 0.113173,-0.226346 z m -0.565864,1.018555 q 0.05659,-0.05659 0.169759,-0.226345 0.113173,-0.169759 0.113173,-0.282932 -0.113173,0.113173 -0.226346,0.282932 -0.05659,0.113173 -0.05659,0.226345 z m -0.339518,0.905383 0.169759,-0.452691 q 0,0.05659 -0.113173,0.226345 -0.113173,0.169759 -0.05659,0.226346 z m -1.641006,3.847875 q 0,-0.05659 0.05659,-0.113173 0.113173,-0.113173 0.113173,-0.113173 l 0.565864,-1.358073 q 0.226346,-0.396105 0.339519,-0.79221 0.113172,-0.396105 0.226345,-0.848796 -0.113173,0.169759 -0.339518,0.679037 -0.169759,0.452691 -0.396105,0.961969 -0.226346,0.509277 -0.396105,0.961969 -0.169759,0.452691 -0.169759,0.62245 z M 0.97642989,29.348845 Q 1.4291211,28.160531 1.8252259,26.972216 2.2779171,25.727316 2.7306083,24.482415 1.9949851,25.274624 1.5422939,26.802457 1.0896027,28.273703 0.97642989,29.348845 Z M 1.9949851,28.500049 Q 2.5042627,27.651253 2.9003675,26.745871 3.2964723,25.783902 3.7491634,24.87852 3.0135403,25.670729 2.6174355,26.576112 2.2779171,27.481494 1.9949851,28.500049 Z m 11.3172799,1.131728 q 0.05659,-0.05659 0.169759,-0.509278 0.113173,-0.452691 0.169759,-0.565864 0.05659,-0.113172 0.169759,-0.62245 0.16976,-0.509278 0.339519,-1.018555 0.169759,-0.565864 0.282932,-1.018555 0.169759,-0.452691 0.169759,-0.509278 v -0.05659 q -0.113173,0 -0.339518,0.565864 -0.226346,0.565864 -0.452692,1.301487 -0.226345,0.735623 -0.396104,1.471246 -0.113173,0.679037 -0.113173,0.961969 z m -0.961969,0.79221 q 0.05659,0 0.113173,-0.282932 0.05659,-0.282932 0.05659,-0.339519 0.169759,-0.792209 0.339519,-1.527833 0.226345,-0.792209 0.339518,-1.584419 -0.169759,0.113173 -0.339518,0.622451 -0.16976,0.452691 -0.282932,1.075141 -0.113173,0.565864 -0.226346,1.131728 -0.05659,0.509278 -0.05659,0.735623 z m 2.320042,-0.79221 q 0.339519,-0.62245 0.509278,-1.41466 0.226346,-0.848796 0.452691,-1.527833 z M 3.4662314,28.782981 q 0.056586,0 0.1697592,-0.396105 Q 3.8057498,27.990771 3.8057498,27.877599 3.9189226,27.594667 4.0320954,27.424907 4.1452682,27.198562 4.2018546,26.91563 4.0886818,27.198562 3.7491634,27.821012 3.409645,28.443463 3.409645,28.726395 Z"
       style="stroke-width:1.41467"
       id="path102" />
    <path
       d="m 29.835458,15.541764 q 0.848796,0 1.471246,0.396104 0.622451,0.339519 1.018555,0.905383 0.396105,0.565864 0.565864,1.301487 0.16976,0.679037 0.113173,1.301487 -0.113173,0.565864 -0.509277,1.244901 -0.339519,0.679037 -0.905383,1.244901 -0.509277,0.565864 -1.244901,0.961969 -0.679036,0.339518 -1.358073,0.339518 -0.622451,0 -1.244901,-0.282932 -0.565864,-0.282932 -0.452691,-0.905382 0.05659,-0.282932 0.339518,-0.735624 0.339519,-0.509277 0.679037,-1.075141 0.396105,-0.565864 0.735623,-1.131728 0.396105,-0.565864 0.565864,-1.075142 -1.471246,0.79221 -2.772733,1.923938 -1.301488,1.131728 -1.471247,2.659561 -0.113173,0.792209 0.509278,1.527832 0.62245,0.735624 1.358073,1.527833 0.79221,0.79221 1.358074,1.697592 0.62245,0.905382 0.509278,1.980524 -0.113173,1.075142 -0.679037,2.093697 -0.565864,0.961969 -1.471247,1.754178 -0.848796,0.735623 -1.980524,1.244901 -1.131727,0.452691 -2.376628,0.452691 -0.679037,0 -1.697592,-0.339518 -0.961969,-0.396105 -1.810765,-0.961969 -0.905382,-0.565864 -1.471246,-1.244901 -0.565864,-0.735623 -0.452692,-1.471246 0,-0.282932 0.16976,-0.339519 0.169759,-0.05659 0.452691,-0.05659 0.565864,0.339518 0.905382,0.679037 0.339519,0.282932 0.679037,0.565864 0.396105,0.226345 0.905382,0.396105 0.509278,0.113172 1.471247,0.113172 0.735623,0 1.41466,-0.452691 0.735623,-0.452691 1.301487,-1.075141 0.62245,-0.679037 1.018555,-1.41466 0.396105,-0.735624 0.509278,-1.358074 0.05659,-0.905382 -0.509278,-1.527833 -0.509278,-0.679036 -1.188314,-1.358073 -0.679037,-0.735623 -1.188315,-1.527833 -0.509277,-0.848796 -0.339518,-2.093697 0.05659,-1.075141 0.735623,-2.093697 0.679037,-1.075141 1.641006,-1.923937 1.018555,-0.848796 2.263456,-1.358074 1.2449,-0.509277 2.433215,-0.509277 z m -4.413739,2.602974 q 0.226345,-0.339518 0.396104,-0.509278 l 0.16976,-0.169759 q -0.16976,0 -0.79221,0.565864 -0.62245,0.565864 -0.79221,0.905383 -0.282931,0.396104 -0.282931,0.509277 0.05659,0.05659 0.339518,-0.282932 0.226345,-0.452691 0.961969,-1.018555 z m 5.205948,0 q 0.113173,-0.396105 0.05659,-0.452691 0,-0.113173 -0.169759,0.226345 -0.05659,0.113173 -0.339519,0.509278 -0.226345,0.396105 -0.509277,0.848796 -0.339519,0.452691 -0.509278,0.679037 -0.113173,0.169759 -0.113173,0.339518 0.05659,0.05659 0.226346,-0.169759 0.226345,-0.282932 0.452691,-0.62245 0.282932,-0.339519 0.509278,-0.735624 0.282932,-0.396104 0.396104,-0.62245 z m -3.904461,-0.282932 q 0.169759,-0.169759 0,-0.113173 -0.113173,0.05659 -0.452691,0.339519 -0.452692,0.282932 -0.79221,0.679036 -0.339518,0.396105 -0.339518,0.509278 0,0.05659 0.565864,-0.452691 0.565864,-0.509278 1.018555,-0.961969 z m 4.413739,1.131728 q 0.169759,-0.679037 -0.169759,0.05659 -0.113173,0.113173 -0.396105,0.452692 -0.282932,0.339518 -0.396105,0.62245 l -0.509277,0.735623 0.396104,-0.396105 q 0.339519,-0.282932 0.622451,-0.679036 0.339518,-0.396105 0.452691,-0.79221 z m -4.357153,0.396105 q 0,-0.113173 0.05659,-0.113173 0.05659,-0.05659 -0.05659,-0.05659 l -0.05659,0.05659 q 0,0.05659 -0.05659,0.05659 0,0 0,0.05659 -0.05659,0.05659 -0.05659,0.113173 0,0.05659 -0.05659,0.05659 0.05659,0 0.226345,-0.169759 z m 5.319122,0.905382 q 0.169759,-0.452691 0.113173,-0.396105 -0.05659,0.05659 -0.339519,0.509278 -0.169759,0.282932 -0.226345,0.396105 -0.05659,0.113173 0.05659,0 0.05659,-0.05659 0.169759,-0.169759 0.113173,-0.16976 0.226346,-0.339519 z m -3.678116,1.527833 q 0.169759,-0.282932 0.169759,-0.396105 0,-0.113173 -0.169759,0.05659 -0.169759,0.113172 -0.339519,0.452691 -0.113172,0.282932 0,0.282932 0,-0.05659 0.05659,-0.113173 z m 0.679037,0.452691 q -0.05659,-0.05659 -0.339519,0.169759 -0.226345,0.16976 -0.226345,0.226346 0,0.169759 0.282932,-0.113173 z m -3.225425,8.148442 q 0.226345,-0.339519 0.113173,-0.339519 l -0.16976,0.169759 q -0.226345,0.226346 -0.339518,0.396105 -0.452691,0.565864 -0.339518,0.565864 0.113172,0 0.339518,-0.226345 0.226346,-0.282932 0.396105,-0.565864 z m 0.282932,0.961968 q 0.282932,-0.282932 0.226345,-0.282932 -0.05659,0 -0.452691,0.282932 l -0.226345,0.226346 q -0.05659,0.05659 -0.05659,0.113173 0.169759,0.169759 0.509278,-0.339519 z m 1.018555,1.018556 q 0.113173,-0.05659 0.169759,-0.113173 0.05659,-0.05659 -0.05659,-0.05659 0,0 -0.169759,0.05659 -0.05659,0.05659 -0.05659,0.113173 0,0.05659 -0.05659,0.05659 0.05659,0.05659 0.169759,-0.05659 z"
       style="stroke-width:1.41467"
       id="path104" />
    <path
       d="M 52.469991,8.8079822 Q 52.63975,8.638223 52.922682,8.638223 q 0.452691,0 0.735623,0.3961048 0.169759,0.282932 0.169759,0.565864 -0.05659,0.4526912 -0.339518,0.9053822 -0.226346,0.452691 -0.735623,0.848796 -0.905383,0.79221 -2.602975,1.301487 -1.697592,0.452692 -3.508357,0.452692 -0.282932,0 -0.565864,0 -0.282932,0 -0.565864,-0.05659 -0.452691,-0.05659 -0.848796,-0.05659 -0.396104,-0.05659 -0.509277,-0.113173 h -0.226346 q -0.169759,0 -0.226345,0.339518 0,0.16976 -0.113173,0.679037 -0.113173,0.452691 -0.282932,1.018555 -0.169759,0.565864 -0.339518,1.075142 -0.16976,0.452691 -0.282932,0.679037 -0.622451,1.358073 -0.961969,2.093696 -0.282932,0.735624 -0.452691,1.075142 l -0.226346,0.452691 q 0,0.05659 0.282932,0.05659 l 1.584419,-0.226346 q 2.999079,-0.339518 4.300566,-1.358074 0.509278,-0.509277 0.735624,-0.509277 0.452691,0 0.735623,0.452691 0.282932,0.396105 0.396105,0.848796 -0.226346,1.131728 -0.79221,1.867351 -0.509278,0.679037 -1.358074,1.131728 -0.848796,0.452691 -1.923937,0.735623 -1.075142,0.226346 -2.433215,0.509278 -0.282932,0.05659 -0.905383,0.113173 -0.565864,0 -1.131728,0 -0.509277,0 -0.905382,0 -0.396105,0 -0.396105,0.05659 -0.452691,0.79221 -0.961969,1.867351 -0.509277,1.075142 -0.961968,2.320043 -0.452692,1.188314 -0.79221,2.489801 -0.339518,1.301487 -0.396105,2.489802 0,0.339518 0,0.679037 0,0.339518 0.05659,0.62245 -0.16976,0.396105 -0.961969,0.396105 -0.169759,0 -0.339519,-0.05659 -0.169759,0 -0.396104,-0.05659 -0.735624,-0.282932 -1.188315,-0.961969 -0.339518,-1.41466 -0.226345,-2.999079 0.113172,-2.150283 0.848796,-4.187393 0.792209,-2.093697 1.810764,-4.074221 1.018556,-1.980524 2.150284,-3.904462 1.131728,-1.980524 2.03711,-3.961048 0.339518,-0.792209 0.62245,-1.980524 0.282932,-1.188314 0.396105,-1.980524 0,-0.8487956 0.282932,-1.0185548 l 0.11317,-0.2263386 0.226346,0.4526912 V 9.6567782 q 0,-0.282932 0.169759,-0.282932 0.113173,0 0.169759,0.1131728 0.113173,0.056586 0.113173,0 0,-0.1131728 0.169759,-0.1131728 0.226346,0 0.679037,0.282932 0.565864,0.282932 1.527832,0.4526908 0.961969,0.113173 2.093697,0.113173 1.131728,0 2.20687,-0.113173 1.075141,-0.1697588 1.980524,-0.4526908 0.735623,-0.2263456 1.188314,-0.4526912 0.452691,-0.2263456 0.622451,-0.3961048 z m -1.188315,1.0751416 q 0.226346,-0.1131728 0.113173,-0.1131728 -0.05659,0 -0.339518,0.1131728 -0.226346,0.056586 -0.509278,0.1697592 -0.226346,0.113173 -0.452691,0.226346 -0.169759,0.05659 -0.113173,0.05659 0.113173,0 0.62245,-0.169759 0.509278,-0.1697594 0.679037,-0.2829322 z m -9.90262,1.8107652 q 0.05659,-0.339519 0.05659,-0.679037 0.05659,-0.339519 0.05659,-0.565864 v -0.226346 q -0.05659,0.05659 -0.05659,0.169759 0,0.113173 -0.05659,0.226346 0,0.113173 0,0.226346 -0.113172,0.282932 -0.169759,0.848796 -0.05659,0.565864 -0.169759,0.961968 -0.113173,0.226346 -0.113173,0.452692 0,0.169759 -0.05659,0.282932 -0.05659,0.169759 -0.05659,0.282932 0.05659,0.05659 0.226346,-0.622451 0.169759,-0.735623 0.339518,-1.358073 z m 10.015793,-1.358074 q -0.62245,0.169759 -1.131728,0.396105 -0.509278,0.169759 -0.396105,0.169759 0.169759,0 0.79221,-0.226346 0.62245,-0.226345 0.735623,-0.339518 z m -9.393342,1.41466 q 0,-0.169759 0,-0.282932 0.05659,-0.113173 0.05659,-0.226346 v -0.226345 q 0,0.05659 -0.05659,0.113173 -0.113173,0.113172 -0.113173,0.339518 0,0.169759 -0.113173,0.62245 -0.113173,0.396105 -0.226345,0.848796 -0.05659,0.452692 -0.16976,0.848796 -0.113172,0.339519 -0.113172,0.509278 0.05659,0 0.05659,-0.05659 0,0 0.05659,-0.113173 0.16976,-0.396105 0.339519,-1.018555 0.169759,-0.679037 0.282932,-1.358074 z m 0.452691,9.053824 h -0.282932 q 0,0 0.735623,-0.05659 0.735623,-0.113172 1.641006,-0.226345 0.905382,-0.113173 1.641005,-0.339519 0.79221,-0.226345 0.79221,-0.565864 -0.113173,0 -0.339519,0.16976 -0.452691,0.282932 -1.641005,0.62245 -1.188315,0.282932 -2.320042,0.396105 z m 3.508357,0.169759 q -0.339519,0 -0.396105,0.05659 -0.169759,0.05659 -0.565864,0.16976 -0.339519,0.113172 -0.848796,0.226345 -0.509278,0.05659 -1.075142,0.169759 -0.509277,0.113173 -0.905382,0.16976 L 41.32247,21.87944 h 0.62245 q 0.339519,0 0.735624,0 0.452691,0 0.905382,-0.113172 0.62245,-0.113173 1.471246,-0.396105 0.848796,-0.282932 0.905383,-0.396105 z m -0.622451,1.697592 q 0.339519,-0.169759 0.282932,-0.169759 -0.169759,0 -0.735623,0.169759 l -1.641006,0.396105 q -0.05659,0 -0.113172,0.05659 -0.05659,0 -0.113173,0 -0.169759,0.05659 -0.396105,0.05659 -0.113173,0 -0.113173,0.05659 h 0.396105 q 0.452691,0 1.188314,-0.169759 0.735624,-0.226346 1.244901,-0.396105 z m -11.656798,7.0733 q 0.113173,-0.452691 0.113173,-0.509278 -0.05659,-0.113173 -0.169759,0.226346 -0.05659,0.339518 -0.05659,0.509277 0,0.226346 0.113173,-0.226345 z m 0.62245,0.565864 q 0.113173,-0.452691 0.113173,-0.565864 v -0.226346 q -0.05659,-0.05659 -0.113173,0.169759 0,0.16976 -0.05659,0.396105 -0.113173,0.282932 -0.169759,0.679037 0,0.339518 0,0.679037 -0.05659,0.396105 -0.05659,0.735623 0,0.339518 0.113173,0.452691 v -0.169759 q 0,-0.113173 0,-0.226346 0.05659,-0.113172 0.05659,-0.339518 -0.05659,-0.169759 -0.05659,-0.339518 0.05659,-0.226346 0.05659,-0.452692 0,-0.565864 0.113172,-0.792209 z m -0.735623,2.489801 q -0.05659,-0.113172 -0.05659,-0.565864 0,-0.452691 0,-0.905382 v -1.188314 l -0.113173,0.679036 q 0,0.113173 -0.05659,0.282932 0,0.16976 0,0.282932 -0.05659,0.509278 0,1.075142 0.113172,0.509278 0.226345,0.62245 z"
       style="stroke-width:1.41467"
       id="path106" />
    <path
       d="m 49.923519,23.350687 q 0.509277,-1.075142 1.471246,-2.433215 1.018555,-1.358074 2.263456,-2.546388 1.301487,-1.244901 2.716147,-2.037111 1.471247,-0.848796 2.82932,-0.848796 1.018556,-0.05659 1.980524,0.622451 1.018555,0.62245 1.810765,2.093696 l 0.113173,-0.05659 q 0,-0.226346 0.05659,-0.282932 l 0.226346,-0.848796 q 0.113173,-0.113173 0.113173,-0.396105 0.113172,-0.339518 0.169759,-0.62245 0.05659,-0.339519 0.339518,-0.339519 0.622451,0 1.301487,0.452692 0.679037,0.452691 0.79221,1.075141 0.05659,0.509278 -0.169759,1.41466 -0.169759,0.848796 -0.622451,1.923938 -0.396104,1.018555 -0.961968,2.206869 -0.509278,1.188315 -1.075142,2.320043 -0.565864,1.188314 -1.131728,2.433215 -0.565864,1.244901 -1.018555,2.376629 -0.396105,1.131728 -0.679037,2.093696 -0.226345,0.961969 -0.113173,1.641006 -0.113172,0.452691 0.452692,0.452691 0.339518,0 0.679036,-0.226345 0.16976,-0.113173 0.396105,-0.16976 0.226346,-0.113172 0.339518,-0.113172 0,0.05659 0.05659,0.05659 0.05659,0 0.05659,0.05659 0,0 0.05659,0 -0.113173,0.452692 -0.79221,0.79221 -0.62245,0.282932 -1.131728,0.282932 -0.961969,0 -1.980524,-0.396105 -1.018555,-0.396105 -1.244901,-1.471246 -0.05659,-0.79221 0.113173,-1.641006 0.169759,-0.848796 0.396105,-2.546388 -0.396105,0.452691 -1.358074,1.471247 -0.905382,0.961968 -1.980524,1.980524 -1.075141,1.018555 -2.03711,1.810764 -0.961969,0.79221 -1.41466,0.79221 -1.41466,0 -2.263456,-0.905382 -0.848796,-0.961969 -1.075141,-2.263456 -0.113173,-0.848796 0.05659,-1.980524 0.169759,-1.131728 0.565864,-2.263456 0.339518,-1.131728 0.79221,-2.150283 0.452691,-1.075142 0.905382,-1.810765 z m 11.543625,-4.526912 q 0,-0.396105 -0.339518,-1.018555 -0.282932,-0.622451 -0.905382,-0.622451 -0.79221,0 -1.810765,0.905383 -0.961969,0.905382 -2.037111,2.376628 -1.018555,1.41466 -1.980524,3.168839 -0.905382,1.754178 -1.641005,3.508356 -0.679037,1.697592 -1.075142,3.225425 -0.339518,1.471247 -0.169759,2.376629 0.05659,0.282932 0.848796,-0.396105 0.79221,-0.679037 1.923938,-1.923937 1.188314,-1.301488 2.433215,-2.942493 1.301487,-1.697592 2.376629,-3.338598 1.131728,-1.641005 1.810764,-3.055665 0.679037,-1.41466 0.565864,-2.263456 z m 1.641006,0.226345 q 0.113173,0 0.226345,-0.339518 0.16976,-0.339518 0.282932,-0.735623 0.113173,-0.452691 0.16976,-0.848796 0.05659,-0.452691 0.05659,-0.622451 -0.113173,0 -0.169759,0.226346 0,0.169759 0,0.226346 -0.113173,0.565864 -0.282932,1.075141 -0.169759,0.509278 -0.282932,1.018555 z m 0.339518,1.018556 q 0.282932,-0.622451 0.622451,-1.188315 0.339518,-0.565864 0.396104,-1.301487 h -0.113172 q -0.16976,0.62245 -0.452692,1.244901 -0.282932,0.62245 -0.452691,1.244901 z m 1.075142,0.792209 q 0.113173,-0.226345 0.282932,-0.565864 0.226345,-0.396105 0.396105,-0.792209 0.169759,-0.452692 0.282932,-0.848796 0.113172,-0.396105 0.113172,-0.622451 h -0.05659 l -0.169759,0.396105 q -0.226346,0.62245 -0.452691,1.244901 -0.16976,0.565864 -0.396105,1.188314 z M 48.282513,32.347924 q 0.05659,-0.05659 0,-0.396105 0,-0.339518 0,-0.396104 -0.05659,-0.622451 0.05659,-1.244901 0.169759,-0.679037 0.05659,-1.301487 L 48.3391,28.95274 q -0.05659,0 -0.05659,0.169759 0,0.113173 0,0.16976 -0.113172,0.509277 -0.169759,1.075141 -0.113173,0.565864 0,1.188315 0,0.396104 0.169759,0.792209 z m 0.679037,-0.169759 q 0.05659,-0.05659 0.113173,-0.509278 0.05659,-0.452691 0.113173,-1.018555 0.05659,-0.565864 0.05659,-1.018555 0.05659,-0.509278 0.05659,-0.62245 -0.16976,0.679036 -0.339519,1.41466 -0.169759,0.679036 -0.05659,1.41466 z m 8.827478,0.905382 q 0.05659,-0.169759 0.05659,-0.905382 0,-0.79221 0,-1.075142 l -0.226346,1.641006 z m -7.525991,-0.679036 -0.05659,-0.509278 v 0.62245 l -0.05659,0.05659 z m 8.261615,0.62245 q 0.113172,0 0.113172,-0.169759 0.05659,-0.226346 0,-0.282932 v -0.509278 -0.113173 q -0.113172,0 -0.113172,0.509278 0,0.509278 0,0.565864 z m 1.358073,0.113173 v 0.113173 l 0.113173,0.113172 z M 52.073802,21.596508 q 0.113173,0 0.339518,-0.226345 0.226346,-0.282932 0.16976,-0.339519 0.396104,-0.509277 0.905382,-0.961968 0.509278,-0.452692 0.79221,-0.905383 V 19.05012 q -0.05659,0 -0.16976,0.113173 -0.113172,0.05659 -0.113172,0.113173 -0.452692,0.339518 -0.905383,0.735623 -0.396105,0.339519 -0.679037,0.905383 -0.05659,0.113172 -0.169759,0.282932 -0.05659,0.169759 -0.169759,0.396104 z m 0.905382,0.282932 q 0.05659,0 0.339519,-0.282932 0.339518,-0.339518 0.735623,-0.679036 0.396105,-0.396105 0.679037,-0.735624 0.339518,-0.339518 0.452691,-0.396104 -0.565864,0.396104 -1.188314,0.848796 -0.565864,0.396104 -0.961969,0.961968 z m 0.905383,1.018556 0.226345,-0.396105 -0.339518,0.452691 v 0.05659 z"
       style="stroke-width:1.41467"
       id="path108" />
    <path
       d="m 71.030233,15.824696 q 0,-0.226346 0.396105,-0.282932 0.396105,-0.05659 0.452691,-0.05659 0.961969,0 1.697592,0.79221 0.79221,0.735623 0.79221,1.697592 0,1.018555 -0.565864,2.489801 -0.565864,1.41466 -1.41466,2.99908 -0.848796,1.527832 -1.867351,3.168838 -0.961969,1.584419 -1.810765,2.942493 -0.848796,1.358073 -1.41466,2.433215 -0.565864,1.018555 -0.565864,1.41466 0,0.396105 0.05659,0.565864 0.113172,0.113173 0.226345,0.169759 0.113173,0.05659 0.282932,0.113173 0.169759,0.05659 0.282932,0.282932 0,0.169759 -0.509277,0.282932 -0.509278,0.113173 -0.679037,0.113173 -0.339519,0 -0.79221,-0.226346 -0.396105,-0.226346 -0.792209,-0.565864 -0.339519,-0.339518 -0.565864,-0.735623 -0.282932,-0.452691 -0.282932,-0.848796 0,-0.735623 0.565864,-1.980524 0.509277,-1.301487 1.301487,-2.82932 0.848796,-1.527833 1.810765,-3.168838 0.961968,-1.641006 1.754178,-3.112252 0.848796,-1.527833 1.358073,-2.716148 0.565864,-1.2449 0.565864,-1.867351 0,-0.282932 -0.169759,-0.509277 -0.113173,-0.282932 -0.113173,-0.565864 z m 0.339519,3.338597 q 0.05659,0 0.113173,-0.226345 0.113172,-0.282932 0.169759,-0.565864 0.113173,-0.282932 0.169759,-0.509278 0.113173,-0.282932 0.113173,-0.396105 v -0.169759 q -0.113173,0 -0.226346,0.509278 -0.113173,0.452691 -0.169759,0.565864 -0.05659,0.169759 -0.113173,0.396104 -0.05659,0.16976 -0.05659,0.396105 z m 0.339518,1.188315 q 0.05659,0 0.169759,-0.282932 0.16976,-0.282932 0.282932,-0.622451 0.16976,-0.339518 0.282932,-0.679037 0.113173,-0.339518 0.113173,-0.452691 v -0.226345 q -0.05659,0 -0.226345,0.396104 -0.113173,0.396105 -0.16976,0.509278 -0.05659,0.113173 -0.282932,0.679037 -0.169759,0.565864 -0.169759,0.679037 z m 1.584419,0 q 0.226346,-0.396105 0.226346,-0.79221 v -0.226346 q -0.113173,0.282932 -0.169759,0.509278 -0.05659,0.226346 -0.05659,0.509278 z m -7.978682,12.166075 q 0.113173,0 0.282932,-0.679036 0.169759,-0.679037 0.226346,-0.905383 -0.113173,0.169759 -0.339519,0.735623 -0.226345,0.509278 -0.226345,0.679037 v 0.113173 q 0,0.05659 0.05659,0.05659 z m -0.792209,0 q 0.169759,-0.282932 0.226345,-0.565864 0.05659,-0.282932 0.113173,-0.565864 z m 8.884064,-21.729177 q 0,-0.9619686 0.622451,-1.4146598 0.679036,-0.5092776 1.527832,-0.5092776 0.79221,0 1.471247,0.3961048 0.735623,0.3961048 0.735623,1.3014876 0,0.792209 -0.509278,1.41466 -0.509277,0.62245 -1.301487,0.62245 -0.679037,0 -1.641005,-0.509278 -0.905383,-0.509277 -0.905383,-1.301487 z"
       style="stroke-width:1.41467"
       id="path110" />
    <path
       d="m 84.158244,15.541764 q 0.848796,0 1.471247,0.396104 0.62245,0.339519 1.018555,0.905383 0.396104,0.565864 0.565864,1.301487 0.169759,0.679037 0.113172,1.301487 -0.113172,0.565864 -0.509277,1.244901 -0.339518,0.679037 -0.905382,1.244901 -0.509278,0.565864 -1.244901,0.961969 -0.679037,0.339518 -1.358074,0.339518 -0.62245,0 -1.244901,-0.282932 -0.565864,-0.282932 -0.452691,-0.905382 0.05659,-0.282932 0.339519,-0.735624 0.339518,-0.509277 0.679036,-1.075141 0.396105,-0.565864 0.735624,-1.131728 0.396104,-0.565864 0.565864,-1.075142 -1.471247,0.79221 -2.772734,1.923938 -1.301487,1.131728 -1.471246,2.659561 -0.113173,0.792209 0.509277,1.527832 0.622451,0.735624 1.358074,1.527833 0.792209,0.79221 1.358073,1.697592 0.622451,0.905382 0.509278,1.980524 -0.113173,1.075142 -0.679037,2.093697 -0.565864,0.961969 -1.471246,1.754178 -0.848796,0.735623 -1.980524,1.244901 -1.131728,0.452691 -2.376629,0.452691 -0.679037,0 -1.697592,-0.339518 -0.961969,-0.396105 -1.810765,-0.961969 -0.905382,-0.565864 -1.471246,-1.244901 -0.565864,-0.735623 -0.452691,-1.471246 0,-0.282932 0.169759,-0.339519 0.169759,-0.05659 0.452691,-0.05659 0.565864,0.339518 0.905383,0.679037 0.339518,0.282932 0.679036,0.565864 0.396105,0.226345 0.905383,0.396105 0.509277,0.113172 1.471246,0.113172 0.735623,0 1.41466,-0.452691 0.735623,-0.452691 1.301487,-1.075141 0.622451,-0.679037 1.018555,-1.41466 0.396105,-0.735624 0.509278,-1.358074 0.05659,-0.905382 -0.509278,-1.527833 -0.509277,-0.679036 -1.188314,-1.358073 -0.679037,-0.735623 -1.188314,-1.527833 -0.509278,-0.848796 -0.339519,-2.093697 0.05659,-1.075141 0.735623,-2.093697 0.679037,-1.075141 1.641006,-1.923937 1.018555,-0.848796 2.263456,-1.358074 1.244901,-0.509277 2.433215,-0.509277 z m -4.413739,2.602974 Q 79.970851,17.80522 80.14061,17.63546 l 0.169759,-0.169759 q -0.169759,0 -0.79221,0.565864 -0.62245,0.565864 -0.792209,0.905383 -0.282932,0.396104 -0.282932,0.509277 0.05659,0.05659 0.339518,-0.282932 0.226346,-0.452691 0.961969,-1.018555 z m 5.205949,0 q 0.113173,-0.396105 0.05659,-0.452691 0,-0.113173 -0.169759,0.226345 -0.05659,0.113173 -0.339518,0.509278 -0.226346,0.396105 -0.509278,0.848796 -0.339518,0.452691 -0.509278,0.679037 -0.113172,0.169759 -0.113172,0.339518 0.05659,0.05659 0.226345,-0.169759 0.226346,-0.282932 0.452691,-0.62245 0.282932,-0.339519 0.509278,-0.735624 0.282932,-0.396104 0.396105,-0.62245 z m -3.904462,-0.282932 q 0.169759,-0.169759 0,-0.113173 -0.113173,0.05659 -0.452691,0.339519 -0.452691,0.282932 -0.79221,0.679036 -0.339518,0.396105 -0.339518,0.509278 0,0.05659 0.565864,-0.452691 0.565864,-0.509278 1.018555,-0.961969 z m 4.413739,1.131728 q 0.16976,-0.679037 -0.169759,0.05659 -0.113173,0.113173 -0.396105,0.452692 -0.282932,0.339518 -0.396104,0.62245 l -0.509278,0.735623 0.396105,-0.396105 q 0.339518,-0.282932 0.62245,-0.679036 0.339519,-0.396105 0.452691,-0.79221 z m -4.357152,0.396105 q 0,-0.113173 0.05659,-0.113173 0.05659,-0.05659 -0.05659,-0.05659 l -0.05659,0.05659 q 0,0.05659 -0.05659,0.05659 0,0 0,0.05659 -0.05659,0.05659 -0.05659,0.113173 0,0.05659 -0.05659,0.05659 0.05659,0 0.226346,-0.169759 z m 5.319121,0.905382 q 0.169759,-0.452691 0.113173,-0.396105 -0.05659,0.05659 -0.339518,0.509278 -0.16976,0.282932 -0.226346,0.396105 -0.05659,0.113173 0.05659,0 0.05659,-0.05659 0.16976,-0.169759 0.113172,-0.16976 0.226345,-0.339519 z m -3.678116,1.527833 q 0.169759,-0.282932 0.169759,-0.396105 0,-0.113173 -0.169759,0.05659 -0.169759,0.113172 -0.339518,0.452691 -0.113173,0.282932 0,0.282932 0,-0.05659 0.05659,-0.113173 z m 0.679037,0.452691 q -0.05659,-0.05659 -0.339518,0.169759 -0.226346,0.16976 -0.226346,0.226346 0,0.169759 0.282932,-0.113173 z m -3.225425,8.148442 q 0.226346,-0.339519 0.113173,-0.339519 l -0.169759,0.169759 q -0.226346,0.226346 -0.339519,0.396105 -0.452691,0.565864 -0.339518,0.565864 0.113173,0 0.339518,-0.226345 0.226346,-0.282932 0.396105,-0.565864 z m 0.282932,0.961968 q 0.282932,-0.282932 0.226346,-0.282932 -0.05659,0 -0.452691,0.282932 l -0.226346,0.226346 q -0.05659,0.05659 -0.05659,0.113173 0.169759,0.169759 0.509277,-0.339519 z m 1.018555,1.018556 q 0.113173,-0.05659 0.16976,-0.113173 0.05659,-0.05659 -0.05659,-0.05659 0,0 -0.169759,0.05659 -0.05659,0.05659 -0.05659,0.113173 0,0.05659 -0.05659,0.05659 0.05659,0.05659 0.169759,-0.05659 z"
       style="stroke-width:1.41467"
       id="path112" />
    <path
       d="m 88.175846,23.350687 q 0.509277,-1.075142 1.471246,-2.433215 1.018555,-1.358074 2.263456,-2.546388 1.301487,-1.244901 2.716147,-2.037111 1.471247,-0.848796 2.82932,-0.848796 1.018555,-0.05659 1.980524,0.622451 1.018551,0.62245 1.810761,2.093696 l 0.11318,-0.05659 q 0,-0.226346 0.0566,-0.282932 l 0.22635,-0.848796 q 0.11317,-0.113173 0.11317,-0.396105 0.11317,-0.339518 0.16976,-0.62245 0.0566,-0.339519 0.33952,-0.339519 0.62245,0 1.30149,0.452692 0.67903,0.452691 0.79221,1.075141 0.0566,0.509278 -0.16976,1.41466 -0.16976,0.848796 -0.62245,1.923938 -0.39611,1.018555 -0.96197,2.206869 -0.50928,1.188315 -1.07514,2.320043 -0.56587,1.188314 -1.13173,2.433215 -0.565866,1.244901 -1.018557,2.376629 -0.396105,1.131728 -0.679037,2.093696 -0.226346,0.961969 -0.113173,1.641006 -0.113173,0.452691 0.452691,0.452691 0.339519,0 0.679037,-0.226345 0.169759,-0.113173 0.396109,-0.16976 0.22634,-0.113172 0.33951,-0.113172 0,0.05659 0.0566,0.05659 0.0566,0 0.0566,0.05659 0,0 0.0566,0 -0.11317,0.452692 -0.792206,0.79221 -0.62245,0.282932 -1.131728,0.282932 -0.961969,0 -1.980524,-0.396105 -1.018555,-0.396105 -1.244901,-1.471246 -0.05659,-0.79221 0.113173,-1.641006 0.169759,-0.848796 0.396105,-2.546388 -0.396105,0.452691 -1.358074,1.471247 -0.905382,0.961968 -1.980524,1.980524 -1.075141,1.018555 -2.03711,1.810764 -0.961969,0.79221 -1.41466,0.79221 -1.41466,0 -2.263456,-0.905382 -0.848796,-0.961969 -1.075142,-2.263456 -0.113172,-0.848796 0.05659,-1.980524 0.169759,-1.131728 0.565864,-2.263456 0.339518,-1.131728 0.792209,-2.150283 0.452692,-1.075142 0.905383,-1.810765 z m 11.543625,-4.526912 q 0,-0.396105 -0.339518,-1.018555 -0.282932,-0.622451 -0.905383,-0.622451 -0.792209,0 -1.810764,0.905383 -0.961969,0.905382 -2.037111,2.376628 -1.018555,1.41466 -1.980524,3.168839 -0.905382,1.754178 -1.641005,3.508356 -0.679037,1.697592 -1.075142,3.225425 -0.339518,1.471247 -0.169759,2.376629 0.05659,0.282932 0.848796,-0.396105 0.79221,-0.679037 1.923938,-1.923937 1.188314,-1.301488 2.433215,-2.942493 1.301487,-1.697592 2.376629,-3.338598 1.131727,-1.641005 1.810764,-3.055665 0.679037,-1.41466 0.565864,-2.263456 z m 1.641009,0.226345 q 0.11317,0 0.22634,-0.339518 0.16976,-0.339518 0.28293,-0.735623 0.11318,-0.452691 0.16976,-0.848796 0.0566,-0.452691 0.0566,-0.622451 -0.11317,0 -0.16976,0.226346 0,0.169759 0,0.226346 -0.11317,0.565864 -0.28293,1.075141 -0.16976,0.509278 -0.28293,1.018555 z M 101.7,20.068676 q 0.28293,-0.622451 0.62245,-1.188315 0.33951,-0.565864 0.3961,-1.301487 h -0.11317 q -0.16976,0.62245 -0.45269,1.244901 -0.28294,0.62245 -0.45269,1.244901 z m 1.07514,0.792209 q 0.11317,-0.226345 0.28293,-0.565864 0.22634,-0.396105 0.3961,-0.792209 0.16976,-0.452692 0.28294,-0.848796 0.11317,-0.396105 0.11317,-0.622451 h -0.0566 l -0.16976,0.396105 q -0.22634,0.62245 -0.45269,1.244901 -0.16976,0.565864 -0.3961,1.188314 z m -16.2403,11.487039 q 0.05659,-0.05659 0,-0.396105 0,-0.339518 0,-0.396104 -0.05659,-0.622451 0.05659,-1.244901 0.169759,-0.679037 0.05659,-1.301487 l -0.05659,-0.05659 q -0.05659,0 -0.05659,0.169759 0,0.113173 0,0.16976 -0.113173,0.509277 -0.169759,1.075141 -0.113173,0.565864 0,1.188315 0,0.396104 0.169759,0.792209 z m 0.679037,-0.169759 q 0.05659,-0.05659 0.113173,-0.509278 0.05659,-0.452691 0.113173,-1.018555 0.05659,-0.565864 0.05659,-1.018555 0.05659,-0.509278 0.05659,-0.62245 -0.169759,0.679036 -0.339518,1.41466 -0.169759,0.679036 -0.05659,1.41466 z m 8.827478,0.905382 q 0.05659,-0.169759 0.05659,-0.905382 0,-0.79221 0,-1.075142 l -0.226346,1.641006 z m -7.525991,-0.679036 -0.05659,-0.509278 v 0.62245 l -0.05659,0.05659 z m 8.261615,0.62245 q 0.113172,0 0.113172,-0.169759 0.05659,-0.226346 0,-0.282932 v -0.509278 -0.113173 q -0.113172,0 -0.113172,0.509278 0,0.509278 0,0.565864 z m 1.358073,0.113173 v 0.113173 l 0.113173,0.113172 z M 90.326129,21.596508 q 0.113173,0 0.339518,-0.226345 0.226346,-0.282932 0.16976,-0.339519 0.396104,-0.509277 0.905382,-0.961968 0.509278,-0.452692 0.79221,-0.905383 V 19.05012 q -0.05659,0 -0.16976,0.113173 -0.113172,0.05659 -0.113172,0.113173 -0.452692,0.339518 -0.905383,0.735623 -0.396105,0.339519 -0.679037,0.905383 -0.05659,0.113172 -0.169759,0.282932 -0.05659,0.169759 -0.169759,0.396104 z m 0.905382,0.282932 q 0.05659,0 0.339519,-0.282932 0.339518,-0.339518 0.735623,-0.679036 0.396105,-0.396105 0.679037,-0.735624 0.339518,-0.339518 0.452691,-0.396104 -0.565864,0.396104 -1.188314,0.848796 -0.565864,0.396104 -0.961969,0.961968 z m 0.905383,1.018556 0.226345,-0.396105 -0.339518,0.452691 v 0.05659 z"
       style="stroke-width:1.41467"
       id="path114" />
    <path
       d="m 123.25941,0.20684954 q 0.62245,0 1.30149,0.16975919 0.67903,0.1697592 1.18831,0.5092776 0.56586,0.33951837 0.90538,0.90538237 0.39611,0.565864 0.39611,1.3014872 0,1.980524 -1.52784,4.0176343 -1.47124,2.0371104 -3.67811,3.7912888 -2.15028,1.697592 -4.52691,3.055666 -2.32005,1.358073 -4.01764,1.980523 -0.3961,0.679037 -1.13173,2.093697 -0.67903,1.358074 -1.52783,3.112252 -0.84879,1.697592 -1.75418,3.62153 -0.84879,1.923937 -1.58442,3.678116 -0.73562,1.697592 -1.18831,3.055665 -0.45269,1.301487 -0.45269,1.867351 0,0.113173 0,0.282932 0.0566,0.16976 0.22634,0.16976 0.50928,0 1.58442,-1.075142 1.07514,-1.131728 2.20687,-2.433215 1.13173,-1.301487 2.03711,-2.376629 0.96197,-1.131728 1.13173,-1.131728 0.39611,0 0.67904,0.169759 -0.33952,0.679037 -1.35808,1.980524 -0.96196,1.301487 -2.15028,2.659561 -1.18831,1.301487 -2.37663,2.263456 -1.18831,0.961969 -1.98052,0.961969 -1.18832,0 -2.03711,-0.565864 -0.79221,-0.565864 -0.79221,-1.867351 0,-1.471247 0.79221,-3.961048 0.84879,-2.546388 2.15028,-5.488881 1.35807,-2.942493 2.99908,-6.111331 1.64101,-3.168838 3.28201,-5.941572 1.64101,-2.82932 3.11225,-4.9796032 1.47125,-2.1502831 2.48981,-3.1688383 1.2449,-1.2449008 2.4898,-1.86735117 1.30148,-0.67903679 3.11225,-0.67903679 z M 103.45417,32.234751 q -0.0566,-0.113172 -0.0566,0.282932 0,0.396105 0.0566,0.282932 z m 0.73562,0.622451 q 0,-0.113173 0,-0.282932 0.0566,-0.169759 0.0566,-0.339519 -0.0566,-0.339518 -0.0566,-0.339518 0,-0.05659 -0.0566,0.113173 0,0.113173 -0.0566,0.339518 0,0.169759 0,0.282932 0,0.339519 0.11317,0.226346 z m 0.45269,-3.678116 q 0,0 0.22635,-0.452691 0.28293,-0.509278 0.56586,-1.075142 0.33952,-0.62245 0.56587,-1.188314 0.28293,-0.565864 0.3961,-0.79221 0.0566,-0.169759 0.39611,-1.018555 0.3961,-0.848796 0.79221,-1.754178 0.45269,-0.961969 0.73562,-1.697592 0.28293,-0.79221 0.22634,-0.848796 -0.0566,-0.05659 -0.28293,0.396104 -0.16976,0.452692 -0.3961,1.075142 -0.22635,0.565864 -0.45269,1.131728 -0.22635,0.509278 -0.28294,0.565864 -0.11317,0.282932 -0.56586,1.244901 -0.3961,0.905382 -0.8488,1.923937 -0.45269,0.961969 -0.7922,1.754179 -0.33952,0.792209 -0.28294,0.735623 z m 2.99908,-8.035269 q 0,0 0.28293,-0.62245 0.28294,-0.622451 0.56587,-1.358074 0.33952,-0.735623 0.62245,-1.41466 0.28293,-0.679037 0.3961,-0.848796 0.0566,-0.169759 0.28294,-0.679037 0.28293,-0.509277 0.56586,-1.131728 0.28293,-0.679036 0.67904,-1.527832 -0.50928,0.961969 -0.90539,1.810764 -0.33951,0.735624 -0.67903,1.41466 -0.33952,0.622451 -0.45269,0.848796 -0.0566,0.113173 -0.28294,0.679037 -0.22634,0.565864 -0.50927,1.244901 -0.22635,0.62245 -0.39611,1.131728 -0.16976,0.509278 -0.16976,0.452691 z m -0.3961,4.526912 q 0,-0.05659 0.16976,-0.452691 0.22634,-0.452691 0.45269,-1.018555 0.28293,-0.565864 0.50928,-1.018555 0.22634,-0.509278 0.33951,-0.679037 0.0566,-0.169759 0.33952,-0.848796 0.33952,-0.735623 0.67904,-1.527833 0.3961,-0.961969 0.8488,-2.093697 -0.39611,0.735623 -0.67904,1.358074 -0.28293,0.565864 -0.56587,1.131728 -0.22634,0.509277 -0.33951,0.735623 -0.0566,0.113173 -0.33952,0.848796 -0.28293,0.679037 -0.62245,1.471246 -0.28293,0.79221 -0.56587,1.471247 -0.22634,0.62245 -0.22634,0.62245 z m 17.8813,-22.6911459 q 0.0566,-0.4526912 -0.0566,-0.7356232 -0.11317,-0.282932 -0.3961,-0.4526912 -0.22635,-0.2263456 -0.73562,-0.282932 -0.50928,-0.056586 -0.90539,0.1131728 -0.33952,0.1131728 -0.90538,0.3961048 -1.01855,0.565864 -1.92394,1.5278328 -0.90538,0.9053824 -2.03711,2.6029743 -0.33952,0.565864 -0.90538,1.5278328 -0.50928,0.9053824 -1.07514,1.980524 -0.56587,1.0751418 -1.13173,2.2068698 -0.56586,1.075141 -0.96197,1.923937 -0.11317,0.282932 -0.16976,0.339519 0,0 0.11318,0 0,0 0.50927,-0.282932 0.56587,-0.282932 1.30149,-0.679037 0.73562,-0.396105 1.41466,-0.848796 0.73562,-0.452691 1.13173,-0.735623 0.67904,-0.509278 1.75418,-1.358074 1.13172,-0.8487958 2.20687,-1.9239374 1.07514,-1.0751416 1.86735,-2.4332152 0.79221,-1.3580735 0.90538,-2.8859063 z"
       style="stroke-width:1.41467"
       id="path116" />
  </g>
</svg>
